<?xml version="1.0" standalone="no"?>
<!DOCTYPE svg PUBLIC "-//W3C//DTD SVG 20010904//EN"
 "http://www.w3.org/TR/2001/REC-SVG-20010904/DTD/svg10.dtd">
<svg version="1.0" xmlns="http://www.w3.org/2000/svg"
 width="207.000000pt" height="207.000000pt" viewBox="0 0 207.000000 207.000000"
 preserveAspectRatio="xMidYMid meet">
<metadata>
Created by potrace 1.14, written by Peter Selinger 2001-2017
</metadata>
<g transform="translate(0.000000,207.000000) scale(0.100000,-0.100000)"
fill="#000000" stroke="none">
<path d="M939 1303 c-5 -36 -3 -308 3 -322 4 -12 16 -17 35 -16 30 1 29 -5 33
135 l1 45 17 -50 c15 -44 21 -50 45 -50 24 -1 30 6 46 50 l20 50 -1 -81 c-1
-44 2 -86 6 -92 3 -6 19 -9 34 -8 l27 3 3 170 2 169 -40 2 c-26 2 -42 -2 -45
-10 -2 -7 -14 -44 -28 -81 l-23 -68 -24 73 c-13 40 -29 76 -35 80 -13 10 -75
10 -76 1z"/>
<path d="M1264 1278 c1 -29 4 -33 32 -36 33 -3 45 10 40 44 -2 13 -13 19 -38
22 -34 3 -35 2 -34 -30z"/>
<path d="M1390 1282 c-1 -44 -1 -296 -1 -308 1 -6 17 -10 36 -10 l35 1 0 171
0 171 -35 1 c-32 1 -35 -1 -35 -26z"/>
<path d="M501 1195 c-35 -58 -67 -108 -71 -110 -5 -3 -22 18 -40 45 -18 28
-35 50 -39 50 -6 0 -241 -371 -241 -381 0 -3 25 -5 55 -5 l55 0 67 108 c43 70
70 105 76 99 6 -6 -6 -35 -34 -81 -24 -39 -51 -84 -60 -98 l-16 -27 73 -2 73
-1 49 76 c27 43 65 105 86 140 21 34 40 62 44 62 7 -1 32 -35 124 -172 32 -48
63 -90 70 -95 12 -7 148 -14 148 -7 0 9 -343 504 -349 504 -3 0 -35 -47 -70
-105z"/>
<path d="M1265 1211 c-8 -8 -5 -241 3 -242 4 0 17 -2 30 -3 12 -2 26 2 30 8 7
9 9 181 3 234 -1 11 -55 14 -66 3z"/>
<path d="M1547 1200 c-33 -26 -51 -81 -43 -132 11 -67 33 -90 105 -104 33 -6
101 40 101 69 0 17 -51 17 -68 0 -27 -27 -72 -8 -72 30 0 15 7 18 33 17 17 -1
51 -2 74 -1 39 1 42 3 39 24 -3 12 -5 30 -5 40 -1 10 -14 32 -30 48 -36 36
-95 40 -134 9z m91 -42 c24 -24 13 -38 -28 -38 -43 0 -45 2 -30 31 12 21 40
25 58 7z"/>
<path d="M1775 1195 c-25 -24 -31 -49 -19 -80 7 -17 74 -55 98 -55 24 0 31
-22 11 -36 -16 -12 -23 -11 -49 6 -32 19 -67 22 -66 4 2 -54 64 -80 143 -60
37 9 59 58 45 97 -7 21 -22 33 -61 47 -53 20 -77 52 -38 52 11 0 26 -6 33 -12
7 -7 20 -12 28 -12 8 1 20 2 27 3 20 2 1 41 -28 56 -44 23 -96 19 -124 -10z"/>
<path d="M585 933 c-17 -26 -33 -51 -37 -57 -4 -6 -14 -1 -25 12 l-18 22 -36
-58 -35 -58 153 0 c109 -1 151 2 146 10 -12 20 -106 161 -112 168 -3 4 -20
-14 -36 -39z"/>
<path d="M1045 902 c-10 -10 -5 -22 10 -22 11 0 15 -11 15 -43 0 -32 4 -44 15
-44 11 0 15 12 15 44 0 32 4 43 15 43 15 0 22 19 8 21 -32 5 -73 5 -78 1z"/>
<path d="M1156 902 c-2 -4 -11 -31 -19 -59 -13 -43 -13 -53 -3 -53 8 0 16 7
20 15 7 19 23 19 43 0 25 -26 32 -7 15 44 -9 31 -22 51 -34 54 -10 3 -20 2
-22 -1z m24 -47 c0 -8 -4 -15 -10 -15 -5 0 -7 7 -4 15 4 8 8 15 10 15 2 0 4
-7 4 -15z"/>
<path d="M1239 907 c-1 -3 -1 -81 0 -98 1 -10 11 -15 33 -15 34 1 53 26 19 26
-22 0 -24 6 -21 51 1 16 -5 29 -14 32 -9 4 -16 5 -17 4z"/>
<path d="M1323 894 c-2 -6 -3 -31 -1 -55 3 -42 4 -44 36 -45 20 0 32 5 32 13
0 7 -10 13 -22 14 l-23 0 23 11 c27 14 29 32 2 25 -13 -3 -20 0 -20 9 0 8 9
14 20 14 11 0 20 6 20 13 0 17 -60 18 -67 1z"/>
<path d="M1409 908 c-1 -2 -3 -26 -5 -54 -3 -40 -1 -53 11 -58 11 -4 15 1 15
19 0 32 7 31 32 0 26 -34 38 -23 38 35 0 33 -5 50 -15 54 -11 4 -15 -2 -15
-22 l-1 -27 -24 28 c-21 24 -33 32 -36 25z"/>
<path d="M1510 894 c0 -8 7 -14 14 -14 11 0 14 -11 13 -40 -2 -23 2 -41 9 -44
18 -7 24 4 24 46 0 21 5 38 10 38 6 0 10 6 10 13 0 8 -15 13 -40 14 -29 1 -40
-2 -40 -13z"/>
<path d="M1639 902 c0 -4 -1 -29 -2 -56 0 -39 3 -50 16 -52 12 -1 17 5 17 22
0 13 4 24 9 24 10 0 26 -20 26 -32 0 -5 3 -8 8 -8 4 0 11 0 15 0 7 0 8 45 3
97 -2 20 -31 3 -31 -18 0 -10 -7 -19 -15 -19 -8 0 -15 9 -15 19 0 17 -29 39
-31 23z"/>
<path d="M1749 898 c-1 -4 -1 -19 -1 -33 0 -14 0 -32 1 -40 1 -22 41 -34 69
-22 18 8 22 18 22 52 0 45 -5 56 -23 49 -7 -2 -11 -22 -11 -44 2 -28 -2 -40
-12 -40 -10 0 -14 13 -14 43 0 32 -4 44 -15 44 -8 0 -15 -4 -16 -9z"/>
<path d="M1856 903 c-3 -4 -6 -30 -6 -59 l0 -52 33 2 c19 2 39 6 45 10 14 9
16 36 2 36 -6 0 -6 9 0 25 11 28 7 31 -42 39 -14 2 -29 2 -32 -1z m44 -39 c0
-8 -4 -12 -10 -9 -5 3 -10 10 -10 16 0 5 5 9 10 9 6 0 10 -7 10 -16z m4 -33
c3 -5 -1 -11 -9 -15 -9 -3 -15 0 -15 9 0 16 16 20 24 6z"/>
</g>
</svg>
